<svg width="20" height="22" viewBox="0 0 20 22" fill="none" xmlns="http://www.w3.org/2000/svg">
<path d="M3 2H17V0H3V2ZM17 2C17.5523 2 18 2.44772 18 3H20C20 1.34315 18.6569 0 17 0V2ZM18 3V17H20V3H18ZM18 17C18 17.5523 17.5523 18 17 18V20C18.6569 20 20 18.6569 20 17H18ZM17 18H3V20H17V18ZM3 18C2.44772 18 2 17.5523 2 17H0C0 18.6569 1.34315 20 3 20V18ZM2 17V3H0V17H2ZM2 3C2 2.44772 2.44772 2 3 2V0C1.34315 0 0 1.34315 0 3H2Z" transform="translate(0 2)" fill="#B4B9C2"/>
<path d="M2 1C2 0.447715 1.55229 0 1 0C0.447715 0 0 0.447715 0 1H2ZM0 5C0 5.55228 0.447715 6 1 6C1.55229 6 2 5.55228 2 5H0ZM0 1V5H2V1H0Z" transform="translate(13)" fill="#B4B9C2"/>
<path d="M2 1C2 0.447715 1.55229 0 1 0C0.447715 0 0 0.447715 0 1H2ZM0 5C0 5.55228 0.447715 6 1 6C1.55229 6 2 5.55228 2 5H0ZM0 1V5H2V1H0Z" transform="translate(5)" fill="#B4B9C2"/>
<path d="M1 0C0.447715 0 0 0.447715 0 1C0 1.55229 0.447715 2 1 2V0ZM19 2C19.5523 2 20 1.55229 20 1C20 0.447715 19.5523 0 19 0V2ZM1 2H19V0H1V2Z" transform="translate(0 8)" fill="#B4B9C2"/>
</svg>
