<svg width="18" height="22" viewBox="0 0 18 22" fill="none" xmlns="http://www.w3.org/2000/svg">
<path d="M13 0C12.4477 0 12 0.447715 12 1C12 1.55229 12.4477 2 13 2V0ZM15 1V0V1ZM1 17H0H1ZM3 1V0V1ZM5 2C5.55228 2 6 1.55229 6 1C6 0.447715 5.55228 0 5 0V2ZM13 2H15V0H13V2ZM15 2C15.2652 2 15.5196 2.10536 15.7071 2.29289L17.1213 0.87868C16.5587 0.31607 15.7956 0 15 0V2ZM15.7071 2.29289C15.8946 2.48043 16 2.73478 16 3H18C18 2.20435 17.6839 1.44129 17.1213 0.87868L15.7071 2.29289ZM16 3V17H18V3H16ZM16 17C16 17.2652 15.8946 17.5196 15.7071 17.7071L17.1213 19.1213C17.6839 18.5587 18 17.7957 18 17H16ZM15.7071 17.7071C15.5196 17.8946 15.2652 18 15 18V20C15.7957 20 16.5587 19.6839 17.1213 19.1213L15.7071 17.7071ZM15 18H3V20H15V18ZM3 18C2.73478 18 2.48043 17.8946 2.29289 17.7071L0.87868 19.1213C1.44129 19.6839 2.20435 20 3 20V18ZM2.29289 17.7071C2.10536 17.5196 2 17.2652 2 17H0C0 17.7957 0.31607 18.5587 0.87868 19.1213L2.29289 17.7071ZM2 17V3H0V17H2ZM2 3C2 2.73478 2.10536 2.48043 2.29289 2.29289L0.87868 0.87868C0.31607 1.44129 0 2.20435 0 3H2ZM2.29289 2.29289C2.48043 2.10536 2.73478 2 3 2V0C2.20435 0 1.44129 0.31607 0.87868 0.87868L2.29289 2.29289ZM3 2H5V0H3V2Z" transform="translate(0 2)" fill="#C19AE5"/>
<path d="M2 2H8V0H2V2ZM8 2H10C10 0.89543 9.10457 0 8 0V2ZM8 2V4H10V2H8ZM8 4V6C9.10457 6 10 5.10457 10 4H8ZM8 4H2V6H8V4ZM2 4H0C0 5.10457 0.89543 6 2 6V4ZM2 4V2H0V4H2ZM2 2V0C0.89543 0 0 0.89543 0 2H2Z" transform="translate(4)" fill="#C19AE5"/>
</svg>
