<svg width="18" height="22" viewBox="0 0 18 22" version="1.1" xmlns="http://www.w3.org/2000/svg" xmlns:xlink="http://www.w3.org/1999/xlink">
<title>clipboard</title>
<desc>Created using Figma</desc>
<g id="Canvas" transform="translate(0 201)">
<g id="clipboard">
<g id="Vector">
<use xlink:href="#path0_stroke" transform="translate(1 -198)" fill="#C19AE5"/>
</g>
<g id="Vector">
<use xlink:href="#path1_stroke" transform="translate(5 -200)" fill="#C19AE5"/>
</g>
</g>
</g>
<defs>
<path id="path0_stroke" d="M 12 -1C 11.4477 -1 11 -0.552285 11 0C 11 0.552285 11.4477 1 12 1L 12 -1ZM 14 0L 14 -1L 14 0ZM 4.44089e-16 16L -1 16L 4.44089e-16 16ZM 2 0L 2 -1L 2 0ZM 4 1C 4.55228 1 5 0.552285 5 0C 5 -0.552285 4.55228 -1 4 -1L 4 1ZM 12 1L 14 1L 14 -1L 12 -1L 12 1ZM 14 1C 14.2652 1 14.5196 1.10536 14.7071 1.29289L 16.1213 -0.12132C 15.5587 -0.68393 14.7956 -1 14 -1L 14 1ZM 14.7071 1.29289C 14.8946 1.48043 15 1.73478 15 2L 17 2C 17 1.20435 16.6839 0.441288 16.1213 -0.12132L 14.7071 1.29289ZM 15 2L 15 16L 17 16L 17 2L 15 2ZM 15 16C 15 16.2652 14.8946 16.5196 14.7071 16.7071L 16.1213 18.1213C 16.6839 17.5587 17 16.7957 17 16L 15 16ZM 14.7071 16.7071C 14.5196 16.8946 14.2652 17 14 17L 14 19C 14.7957 19 15.5587 18.6839 16.1213 18.1213L 14.7071 16.7071ZM 14 17L 2 17L 2 19L 14 19L 14 17ZM 2 17C 1.73478 17 1.48043 16.8946 1.29289 16.7071L -0.12132 18.1213C 0.441288 18.6839 1.20435 19 2 19L 2 17ZM 1.29289 16.7071C 1.10536 16.5196 1 16.2652 1 16L -1 16C -1 16.7957 -0.68393 17.5587 -0.12132 18.1213L 1.29289 16.7071ZM 1 16L 1 2L -1 2L -1 16L 1 16ZM 1 2C 1 1.73478 1.10536 1.48043 1.29289 1.29289L -0.12132 -0.12132C -0.68393 0.441289 -1 1.20435 -1 2L 1 2ZM 1.29289 1.29289C 1.48043 1.10536 1.73478 1 2 1L 2 -1C 1.20435 -1 0.441289 -0.68393 -0.12132 -0.12132L 1.29289 1.29289ZM 2 1L 4 1L 4 -1L 2 -1L 2 1Z"/>
<path id="path1_stroke" d="M 1 1L 7 1L 7 -1L 1 -1L 1 1ZM 7 1L 9 1C 9 -0.10457 8.10457 -1 7 -1L 7 1ZM 7 1L 7 3L 9 3L 9 1L 7 1ZM 7 3L 7 5C 8.10457 5 9 4.10457 9 3L 7 3ZM 7 3L 1 3L 1 5L 7 5L 7 3ZM 1 3L -1 3C -1 4.10457 -0.10457 5 1 5L 1 3ZM 1 3L 1 1L -1 1L -1 3L 1 3ZM 1 1L 1 -1C -0.10457 -1 -1 -0.10457 -1 1L 1 1Z"/>
</defs>
</svg>
