<svg width="18" height="22" viewBox="0 0 18 22" fill="none" xmlns="http://www.w3.org/2000/svg">
<path d="M10 1L10.7071 0.292893C10.5196 0.105357 10.2652 0 10 0V1ZM3 1V0V1ZM1 3H0H1ZM1 19H0H1ZM17 8H18C18 7.73478 17.8946 7.48043 17.7071 7.29289L17 8ZM10 0H3V2H10V0ZM3 0C2.20435 0 1.44129 0.31607 0.87868 0.87868L2.29289 2.29289C2.48043 2.10536 2.73478 2 3 2V0ZM0.87868 0.87868C0.31607 1.44129 0 2.20435 0 3H2C2 2.73478 2.10536 2.48043 2.29289 2.29289L0.87868 0.87868ZM0 3V19H2V3H0ZM0 19C0 19.7957 0.31607 20.5587 0.87868 21.1213L2.29289 19.7071C2.10536 19.5196 2 19.2652 2 19H0ZM0.87868 21.1213C1.44129 21.6839 2.20435 22 3 22V20C2.73478 20 2.48043 19.8946 2.29289 19.7071L0.87868 21.1213ZM3 22H15V20H3V22ZM15 22C15.7957 22 16.5587 21.6839 17.1213 21.1213L15.7071 19.7071C15.5196 19.8946 15.2652 20 15 20V22ZM17.1213 21.1213C17.6839 20.5587 18 19.7957 18 19H16C16 19.2652 15.8946 19.5196 15.7071 19.7071L17.1213 21.1213ZM18 19V8H16V19H18ZM17.7071 7.29289L10.7071 0.292893L9.29289 1.70711L16.2929 8.70711L17.7071 7.29289Z" fill="#C19AE5"/>
<path d="M2 1C2 0.447715 1.55229 0 1 0C0.447715 0 0 0.447715 0 1H2ZM1 8H0C0 8.55228 0.447715 9 1 9V8ZM8 9C8.55228 9 9 8.55228 9 8C9 7.44772 8.55228 7 8 7V9ZM0 1V8H2V1H0ZM1 9H8V7H1V9Z" transform="translate(9)" fill="#C19AE5"/>
</svg>
