<svg width="24" height="20" viewBox="0 0 24 20" fill="none" xmlns="http://www.w3.org/2000/svg">
<path d="M16 7C16 7.55228 16.4477 8 17 8C17.5523 8 18 7.55228 18 7H16ZM13 1V0V1ZM5 1V0V1ZM1 5H0H1ZM0 7C0 7.55228 0.447715 8 1 8C1.55229 8 2 7.55228 2 7H0ZM18 7V5H16V7H18ZM18 5C18 3.67392 17.4732 2.40215 16.5355 1.46447L15.1213 2.87868C15.6839 3.44129 16 4.20435 16 5H18ZM16.5355 1.46447C15.5979 0.526785 14.3261 0 13 0V2C13.7956 2 14.5587 2.31607 15.1213 2.87868L16.5355 1.46447ZM13 0H5V2H13V0ZM5 0C3.67392 0 2.40215 0.526785 1.46447 1.46447L2.87868 2.87868C3.44129 2.31607 4.20435 2 5 2V0ZM1.46447 1.46447C0.526784 2.40215 0 3.67392 0 5H2C2 4.20435 2.31607 3.44129 2.87868 2.87868L1.46447 1.46447ZM0 5V7H2V5H0Z" transform="translate(0 12)" fill="#C19AE5"/>
<path d="M8 5C8 6.65685 6.65685 8 5 8V10C7.76142 10 10 7.76142 10 5H8ZM5 8C3.34315 8 2 6.65685 2 5H0C0 7.76142 2.23858 10 5 10V8ZM2 5C2 3.34315 3.34315 2 5 2V0C2.23858 0 0 2.23858 0 5H2ZM5 2C6.65685 2 8 3.34315 8 5H10C10 2.23858 7.76142 0 5 0V2Z" transform="translate(4)" fill="#C19AE5"/>
<path d="M3.00024 6.87024C3.00024 7.42252 3.44796 7.87024 4.00024 7.87024C4.55252 7.87024 5.00024 7.42252 5.00024 6.87024H3.00024ZM4.00024 4.87024H5.00024V4.86949L4.00024 4.87024ZM1.25024 0.0319972C0.715495 -0.106077 0.170068 0.215496 0.0319972 0.750243C-0.106077 1.28499 0.215496 1.83042 0.750243 1.96849L1.25024 0.0319972ZM5.00024 6.87024V4.87024H3.00024V6.87024H5.00024ZM5.00024 4.86949C4.99941 3.76165 4.63068 2.68546 3.95195 1.80989L2.37126 3.03522C2.77851 3.56056 2.99974 4.20628 3.00024 4.87099L5.00024 4.86949ZM3.95195 1.80989C3.27321 0.934319 2.3229 0.308957 1.25024 0.0319972L0.750243 1.96849C1.39384 2.13466 1.96403 2.50988 2.37126 3.03522L3.95195 1.80989Z" transform="translate(18.9998 12.1298)" fill="#C19AE5"/>
<path d="M1.24828 0.0314913C0.713254 -0.105499 0.168479 0.217176 0.0314913 0.752202C-0.105499 1.28723 0.217176 1.832 0.752202 1.96899L1.24828 0.0314913ZM4.00808 4.87524H5.00808H4.00808ZM0.752202 7.78149C0.217176 7.91848 -0.105499 8.46325 0.0314913 8.99828C0.168479 9.5333 0.713254 9.85598 1.24828 9.71899L0.752202 7.78149ZM0.752202 1.96899C1.39751 2.13422 1.96948 2.50952 2.37793 3.03572L3.95783 1.80938C3.27708 0.932368 2.3238 0.306867 1.24828 0.0314913L0.752202 1.96899ZM2.37793 3.03572C2.78638 3.56193 3.00808 4.20911 3.00808 4.87524H5.00808C5.00808 3.76503 4.63858 2.68639 3.95783 1.80938L2.37793 3.03572ZM3.00808 4.87524C3.00808 5.54137 2.78638 6.18855 2.37793 6.71476L3.95783 7.9411C4.63858 7.06409 5.00808 5.98545 5.00808 4.87524H3.00808ZM2.37793 6.71476C1.96948 7.24096 1.39751 7.61626 0.752202 7.78149L1.24828 9.71899C2.3238 9.44361 3.27708 8.81811 3.95783 7.9411L2.37793 6.71476Z" transform="translate(14.9998 0.129761)" fill="#C19AE5"/>
</svg>
