<svg width="24" height="20" viewBox="0 0 24 20" version="1.1" xmlns="http://www.w3.org/2000/svg" xmlns:xlink="http://www.w3.org/1999/xlink">
<title>users</title>
<desc>Created using Figma</desc>
<g id="Canvas" transform="translate(-164 201)">
<g id="users">
<g id="Vector">
<use xlink:href="#path0_stroke" transform="translate(165 -188)" fill="#B4B9C2"/>
</g>
<g id="Vector">
<use xlink:href="#path1_stroke" transform="translate(169 -200)" fill="#B4B9C2"/>
</g>
<g id="Vector">
<use xlink:href="#path2_stroke" transform="translate(184 -187.87)" fill="#B4B9C2"/>
</g>
<g id="Vector">
<use xlink:href="#path3_stroke" transform="translate(180 -199.87)" fill="#B4B9C2"/>
</g>
</g>
</g>
<defs>
<path id="path0_stroke" d="M 15 6C 15 6.55228 15.4477 7 16 7C 16.5523 7 17 6.55228 17 6L 15 6ZM 12 1.77636e-15L 12 -1L 12 1.77636e-15ZM 4 1.77636e-15L 4 -1L 4 1.77636e-15ZM 7.77156e-16 4L -1 4L 7.77156e-16 4ZM -1 6C -1 6.55228 -0.552285 7 7.77156e-16 7C 0.552285 7 1 6.55228 1 6L -1 6ZM 17 6L 17 4L 15 4L 15 6L 17 6ZM 17 4C 17 2.67392 16.4732 1.40215 15.5355 0.464467L 14.1213 1.87868C 14.6839 2.44129 15 3.20435 15 4L 17 4ZM 15.5355 0.464467C 14.5979 -0.473215 13.3261 -1 12 -1L 12 1C 12.7956 1 13.5587 1.31607 14.1213 1.87868L 15.5355 0.464467ZM 12 -1L 4 -1L 4 1L 12 1L 12 -1ZM 4 -1C 2.67392 -1 1.40215 -0.473215 0.464466 0.464467L 1.87868 1.87868C 2.44129 1.31607 3.20435 1 4 1L 4 -1ZM 0.464466 0.464467C -0.473216 1.40215 -1 2.67392 -1 4L 1 4C 1 3.20435 1.31607 2.44129 1.87868 1.87868L 0.464466 0.464467ZM -1 4L -1 6L 1 6L 1 4L -1 4Z"/>
<path id="path1_stroke" d="M 7 4C 7 5.65685 5.65685 7 4 7L 4 9C 6.76142 9 9 6.76142 9 4L 7 4ZM 4 7C 2.34315 7 1 5.65685 1 4L -1 4C -1 6.76142 1.23858 9 4 9L 4 7ZM 1 4C 1 2.34315 2.34315 1 4 1L 4 -1C 1.23858 -1 -1 1.23858 -1 4L 1 4ZM 4 1C 5.65685 1 7 2.34315 7 4L 9 4C 9 1.23858 6.76142 -1 4 -1L 4 1Z"/>
<path id="path2_stroke" d="M 2 5.87C 2 6.42228 2.44772 6.87 3 6.87C 3.55228 6.87 4 6.42228 4 5.87L 2 5.87ZM 3 3.87L 4 3.87L 4 3.86925L 3 3.87ZM 0.25 -0.968246C -0.284748 -1.10632 -0.830175 -0.784747 -0.968246 -0.25C -1.10632 0.284748 -0.784747 0.830175 -0.25 0.968246L 0.25 -0.968246ZM 4 5.87L 4 3.87L 2 3.87L 2 5.87L 4 5.87ZM 4 3.86925C 3.99917 2.76141 3.63044 1.68522 2.95171 0.809647L 1.37102 2.03498C 1.77827 2.56032 1.9995 3.20604 2 3.87075L 4 3.86925ZM 2.95171 0.809647C 2.27297 -0.0659243 1.32266 -0.691286 0.25 -0.968246L -0.25 0.968246C 0.393598 1.13442 0.963782 1.50964 1.37102 2.03498L 2.95171 0.809647Z"/>
<path id="path3_stroke" d="M 0.248039 -0.96875C -0.286987 -1.10574 -0.831762 -0.783065 -0.96875 -0.248039C -1.10574 0.286987 -0.783065 0.831762 -0.248039 0.96875L 0.248039 -0.96875ZM 3.00784 3.875L 4.00784 3.875L 3.00784 3.875ZM -0.248039 6.78125C -0.783065 6.91824 -1.10574 7.46301 -0.96875 7.99804C -0.831762 8.53306 -0.286987 8.85574 0.248039 8.71875L -0.248039 6.78125ZM -0.248039 0.96875C 0.397272 1.13398 0.969238 1.50928 1.37769 2.03548L 2.95759 0.809138C 2.27684 -0.0678733 1.32356 -0.693374 0.248039 -0.96875L -0.248039 0.96875ZM 1.37769 2.03548C 1.78614 2.56169 2.00784 3.20887 2.00784 3.875L 4.00784 3.875C 4.00784 2.76479 3.63834 1.68615 2.95759 0.809138L 1.37769 2.03548ZM 2.00784 3.875C 2.00784 4.54113 1.78614 5.18831 1.37769 5.71452L 2.95759 6.94086C 3.63834 6.06385 4.00784 4.98521 4.00784 3.875L 2.00784 3.875ZM 1.37769 5.71452C 0.969238 6.24072 0.397271 6.61602 -0.248039 6.78125L 0.248039 8.71875C 1.32356 8.44337 2.27684 7.81787 2.95759 6.94086L 1.37769 5.71452Z"/>
</defs>
</svg>
