<svg width="6" height="10" viewBox="0 0 6 10" version="1.1" xmlns="http://www.w3.org/2000/svg" xmlns:xlink="http://www.w3.org/1999/xlink">
<title>Vector</title>
<desc>Created using Figma</desc>
<g id="Canvas" transform="translate(-2468 -3411)">
<rect x="2468" y="3411" width="6" height="10" fill="#E5E5E5"/>
<clipPath id="clip-0" clip-rule="evenodd">
<path d="M 2135 3196L 2510 3196L 2510 3863L 2135 3863L 2135 3196Z" fill="#FFFFFF"/>
</clipPath>
<g id="Frequencias" clip-path="url(#clip-0)">
<path d="M 2135 3196L 2510 3196L 2510 3863L 2135 3863L 2135 3196Z" fill="#F3F5F8"/>
<g id="Group 2">
<g id="Rectangle 28" filter="url(#filter0_d)">
<use xlink:href="#path0_fill" transform="translate(2135 3331)" fill="#FFFFFF"/>
<mask id="mask0_outline_out">
<rect id="mask0_outline_inv" fill="white" x="-1" y="-1" width="377" height="349" transform="translate(2135 3331)"/>
<use xlink:href="#path0_fill" fill="black" transform="translate(2135 3331)"/>
</mask>
<g mask="url(#mask0_outline_out)">
<use xlink:href="#path1_stroke_2x" transform="translate(2135 3331)" fill="#F3F5F8"/>
</g>
</g>
<g id="List item">
<g id="Rectangle 29">
<use xlink:href="#path2_fill" transform="translate(2135 3370)" fill="#FFFFFF"/>
</g>
<g id="Group 4">
<g id="Vector">
<use xlink:href="#path3_stroke" transform="translate(2469 3412)" fill="#9BADC7"/>
</g>
</g>
</g>
</g>
</g>
</g>
<defs>
<filter id="filter0_d" filterUnits="userSpaceOnUse" x="2134" y="3330" width="377" height="351" color-interpolation-filters="sRGB">
<feFlood flood-opacity="0" result="BackgroundImageFix"/>
<feColorMatrix in="SourceAlpha" type="matrix" values="0 0 0 0 0 0 0 0 0 0 0 0 0 0 0 0 0 0 255 0"/>
<feOffset dx="0" dy="2"/>
<feColorMatrix type="matrix" values="0 0 0 0 0 0 0 0 0 0 0 0 0 0 0 0 0 0 0.08 0"/>
<feBlend mode="normal" in2="BackgroundImageFix" result="effect1_dropShadow"/>
<feBlend mode="normal" in="SourceGraphic" in2="effect1_dropShadow" result="shape"/>
</filter>
<path id="path0_fill" d="M 0 4C 0 1.79086 1.79086 0 4 0L 371 0C 373.209 0 375 1.79086 375 4L 375 343C 375 345.209 373.209 347 371 347L 4 347C 1.79086 347 0 345.209 0 343L 0 4Z"/>
<path id="path1_stroke_2x" d="M 4 1L 371 1L 371 -1L 4 -1L 4 1ZM 374 4L 374 343L 376 343L 376 4L 374 4ZM 371 346L 4 346L 4 348L 371 348L 371 346ZM 1 343L 1 4L -1 4L -1 343L 1 343ZM 4 346C 2.34315 346 1 344.657 1 343L -1 343C -1 345.761 1.23858 348 4 348L 4 346ZM 374 343C 374 344.657 372.657 346 371 346L 371 348C 373.761 348 376 345.761 376 343L 374 343ZM 371 1C 372.657 1 374 2.34315 374 4L 376 4C 376 1.23858 373.761 -1 371 -1L 371 1ZM 4 -1C 1.23858 -1 -1 1.23858 -1 4L 1 4C 1 2.34315 2.34315 1 4 1L 4 -1Z"/>
<path id="path2_fill" d="M 0 0L 375 0L 375 96L 0 96L 0 0Z"/>
<path id="path3_stroke" d="M 4 4L 4.49497 4.49497L 4.98995 4L 4.49497 3.50503L 4 4ZM -0.494975 0.494975L 3.50503 4.49497L 4.49497 3.50503L 0.494975 -0.494975L -0.494975 0.494975ZM 3.50503 3.50503L -0.494975 7.50503L 0.494975 8.49498L 4.49497 4.49497L 3.50503 3.50503Z"/>
</defs>
</svg>
